<svg xmlns="http://www.w3.org/2000/svg" width="48" height="48" viewBox="0 0 48 48"><path d="M28.375,20.743a2.55,2.55,0,0,1,2.15.975,4.026,4.026,0,0,1,.75,2.525,7.145,7.145,0,0,1-.049.875A8.281,8.281,0,0,1,28.9,29.593a8.475,8.475,0,0,1-4.075,2.3,7.586,7.586,0,0,1-1.525.149c-.434,0-.65.017-.65.05l-.8,4.176a1.08,1.08,0,0,1-.651.824,1.281,1.281,0,0,1-.625.15.956.956,0,0,1-.562-.263.758.758,0,0,1-.213-.562q0-.325,1.375-4.575c.016-.017,0-.033-.05-.05s-.108-.033-.175-.05a6.006,6.006,0,0,1-2.775-1.7,4.268,4.268,0,0,1-1.1-3,6.924,6.924,0,0,1,.125-1.2,9.861,9.861,0,0,1,2.35-4.824h.325c.351,0,.525.066.525.2a.77.77,0,0,1-.2.35,9.4,9.4,0,0,0-1.825,3.725,4.935,4.935,0,0,0-.25,1.25,3.26,3.26,0,0,0,.125,1,3.361,3.361,0,0,0,2.1,2.075,3.6,3.6,0,0,0,1.349.425l.05-.024c.1-.317.208-.659.325-1.026q.675-2.149,1.25-3.525a10.045,10.045,0,0,1,2.526-3.775A3.872,3.872,0,0,1,28.375,20.743Zm1.8,4.1a2.261,2.261,0,0,0-.6-1.675,2.165,2.165,0,0,0-1.6-.6,3.332,3.332,0,0,0-2.3,1A7.448,7.448,0,0,0,23.9,26.343a15.164,15.164,0,0,0-.7,2.725l-.224,1.125a3.89,3.89,0,0,0,.5.05,7.536,7.536,0,0,0,4.1-1.2,8.8,8.8,0,0,0,1.075-.9,5.157,5.157,0,0,0,1.475-2.6A3.119,3.119,0,0,0,30.175,24.843Z" style="fill:#404040"/></svg>